<svg data-name="bcglr" xmlns="http://www.w3.org/2000/svg" viewBox="0 0 401.54 400.9"><defs><style>.cls-1{fill:#ffffff;}.cls-2{fill:none;stroke:#00b4f0;stroke-linecap:round;stroke-linejoin:round;stroke-width:11px;}.cls-3{fill:#00b4f0;}</style></defs><title>Work Icons</title><circle class="cls-1" cx="200.55" cy="200.84" r="195.8"/><path class="cls-2" d="M209.37,321.2s12.88-29.18,62-9.75"/><path class="cls-2" d="M191,321.28s-13-29.14-62-9.58"/><path class="cls-2" d="M213.49,189c0.85-81.79,35.77-101.15,35.77-101.15"/><path class="cls-2" d="M260.64,117s-24.62,16-32.2,68.83"/><path class="cls-2" d="M289.38,118.15s-36,19.05-44.85,62.43"/><path class="cls-2" d="M185.36,188.35c-0.66-63-25.49-79.24-25.49-79.24"/><path class="cls-2" d="M151.11,129.39s14.16,13.82,20,54.55"/><path class="cls-2" d="M124.32,131.86s23.67,16.63,30.5,50.07"/><polygon class="cls-3" points="284.67 54.82 291.37 75.43 313.05 75.43 295.52 88.17 302.21 108.78 284.67 96.04 267.15 108.78 273.84 88.17 256.31 75.43 277.98 75.43 284.67 54.82"/><polygon class="cls-3" points="130.54 76.72 125.17 93.23 107.82 93.23 121.86 103.43 116.5 119.94 130.54 109.74 144.58 119.94 139.22 103.43 153.26 93.23 135.9 93.23 130.54 76.72"/><g id="_2l9tvb.tif" data-name="2l9tvb.tif"><path class="cls-3" d="M194.42,304.19a63.85,63.85,0,0,0-12.87-8.5,55.07,55.07,0,0,0-17.83-5.29,62.34,62.34,0,0,0-21.64,1.17,80.93,80.93,0,0,0-13.31,4.37,4.4,4.4,0,0,1-6.3-3.93c0-.21,0-0.41,0-0.62q0-40,0-80c0-2.78.82-4,3.44-5.08A83.94,83.94,0,0,1,146,200.58c18.75-2.66,35.7,1.47,50.73,12.79a1.15,1.15,0,0,1,.52,1q0,43,0,86a1.85,1.85,0,0,1-.43,1.09C196.06,302.44,195.24,303.29,194.42,304.19Z"/></g><g id="_2l9tvb.tif-2" data-name="2l9tvb.tif"><path class="cls-3" d="M206.8,304.19a63.85,63.85,0,0,1,12.87-8.5,55.07,55.07,0,0,1,17.83-5.29,62.34,62.34,0,0,1,21.64,1.17,80.93,80.93,0,0,1,13.31,4.37,4.4,4.4,0,0,0,6.3-3.93c0-.21,0-0.41,0-0.62q0-40,0-80c0-2.78-.82-4-3.44-5.08a83.94,83.94,0,0,0-20.12-5.68c-18.75-2.66-35.7,1.47-50.73,12.79a1.15,1.15,0,0,0-.52,1q0,43,0,86a1.85,1.85,0,0,0,.43,1.09C205.15,302.44,206,303.29,206.8,304.19Z"/></g></svg>
