<svg id="Layer_1" data-name="Layer 1" xmlns="http://www.w3.org/2000/svg" viewBox="0 0 401.54 400.9"><defs><style>.cls-1{fill:none;stroke:#13498b;stroke-linecap:round;stroke-linejoin:round;stroke-width:11px;}.cls-2{fill:#13498b;}</style></defs><title>Work Icons</title><path class="cls-1" d="M213.37,391.48s19-42.95,91.22-14.36"/><path class="cls-1" d="M186.32,391.59s-19.08-42.89-91.25-14.1"/><path class="cls-1" d="M219.43,196.92C220.69,76.54,272.08,48,272.08,48"/><path class="cls-1" d="M288.83,90.89s-36.24,23.54-47.4,101.31"/><path class="cls-1" d="M331.14,92.6s-53,28-66,91.9"/><path class="cls-1" d="M178,195.93c-1-92.79-37.51-116.63-37.51-116.63"/><path class="cls-1" d="M127.62,109.14s20.84,20.34,29.45,80.3"/><path class="cls-1" d="M88.18,112.78s34.84,24.49,44.89,73.71"/><polygon class="cls-2" points="324.21 -0.62 334.07 29.72 365.98 29.72 340.18 48.48 350.03 78.81 324.21 60.06 298.42 78.81 308.27 48.48 282.46 29.72 314.36 29.72 324.21 -0.62"/><polygon class="cls-2" points="97.34 31.62 89.44 55.92 63.89 55.92 84.56 70.93 76.67 95.23 97.34 80.22 118.01 95.23 110.11 70.93 130.78 55.92 105.23 55.92 97.34 31.62"/><g id="_2l9tvb.tif" data-name="2l9tvb.tif"><path class="cls-2" d="M191.36,366.44a94,94,0,0,0-18.95-12.52,81.06,81.06,0,0,0-26.25-7.79,91.76,91.76,0,0,0-31.86,1.72,119.13,119.13,0,0,0-19.59,6.44,6.48,6.48,0,0,1-9.27-5.79c0-.3,0-0.61,0-0.91q0-58.91,0-117.82c0-4.1,1.21-5.9,5.07-7.48a123.55,123.55,0,0,1,29.62-8.36c27.59-3.92,52.55,2.16,74.67,18.83a1.69,1.69,0,0,1,.77,1.52q0,63.32,0,126.65a2.73,2.73,0,0,1-.63,1.6C193.78,363.86,192.57,365.12,191.36,366.44Z"/></g><g id="_2l9tvb.tif-2" data-name="2l9tvb.tif"><path class="cls-2" d="M209.59,366.44a94,94,0,0,1,18.95-12.52,81.06,81.06,0,0,1,26.25-7.79,91.76,91.76,0,0,1,31.86,1.72,119.13,119.13,0,0,1,19.59,6.44,6.48,6.48,0,0,0,9.27-5.79c0-.3,0-0.61,0-0.91q0-58.91,0-117.82c0-4.1-1.21-5.9-5.07-7.48a123.55,123.55,0,0,0-29.62-8.36c-27.59-3.92-52.55,2.16-74.67,18.83a1.69,1.69,0,0,0-.77,1.52q0,63.32,0,126.65a2.73,2.73,0,0,0,.63,1.6C207.16,363.86,208.38,365.12,209.59,366.44Z"/></g></svg>