<svg id="Layer_1" data-name="Layer 1" xmlns="http://www.w3.org/2000/svg" viewBox="0 0 401.54 400.9"><defs><style>.cls-1{fill:#13498b;}.cls-2{fill:#fff;}</style></defs><title>Work Icons</title><circle class="cls-1" cx="201.8" cy="199.5" r="195.8"/><path class="cls-2" d="M238.55,143.7V78.14L118.27,100.9V295l159.89,33.67V152Zm-28.68-30.94v24.9l-62.28-13.12Zm39.61,180.6L146.95,271.78v-118l91.6,19.29V173l10.93,2.3V293.37Z"/><path class="cls-2" d="M221.12,190.52c-6.6-1.88-13-1.69-17.85.14a52.07,52.07,0,0,1,13.82,13.61,53.36,53.36,0,0,1,7.37,14.85c7.19-.49,12.87-3.66,14.32-8.75C240.94,202.81,233,193.93,221.12,190.52Z"/><path class="cls-2" d="M173.69,234.78a52,52,0,0,1-8.13-17.62c-3.35,3.9-5.71,9.9-6.17,16.75-0.83,12.37,4.86,22.82,12.69,23.34,5.28,0.35,10.19-3.92,13.08-10.52A53.09,53.09,0,0,1,173.69,234.78Z"/><path class="cls-2" d="M222.18,257.62l-4.82-16.4c3.56-6,3.32-15.22-.68-24.51a21.73,21.73,0,0,0-8.15-2.54,22.2,22.2,0,0,0-2.37-.11,21.85,21.85,0,0,0-21.72,22c0,0.54,0,1.07.08,1.6,7.62,7.57,16.71,11.35,23.91,10Z"/><path class="cls-2" d="M206.8,202c-9.69-10-22-13.75-29.62-8.37-7.51,5.28-8.22,17.71-2.52,30a33.93,33.93,0,0,1,31.44-21.61C206.33,201.95,206.56,202,206.8,202Z"/></svg>