<svg id="Layer_1" data-name="Layer 1" xmlns="http://www.w3.org/2000/svg" viewBox="0 0 401.54 400.9"><defs><style>.cls-1{fill:#13498b;}</style></defs><title>Work Icons</title><path class="cls-1" d="M269.11,104.46V-0.06L77.34,36.22V345.76l254.92,53.68V117.76ZM223.38,55.13v39.7l-99.3-20.91Zm63.15,287.94L123.07,308.66V120.52l146,30.75v-0.08l17.42,3.67V343.07Z"/><path class="cls-1" d="M241.32,179.1c-10.52-3-20.78-2.69-28.45.22a83,83,0,0,1,22,21.71,85.07,85.07,0,0,1,11.75,23.67c11.47-.78,20.52-5.83,22.83-13.95C272.93,198.71,260.31,184.54,241.32,179.1Z"/><path class="cls-1" d="M165.7,249.67a82.85,82.85,0,0,1-13-28.09c-5.34,6.22-9.11,15.78-9.83,26.71-1.32,19.72,7.74,36.38,20.23,37.21,8.42,0.56,16.25-6.24,20.86-16.78A84.64,84.64,0,0,1,165.7,249.67Z"/><path class="cls-1" d="M243,286.09l-7.69-26.15c5.68-9.6,5.29-24.27-1.08-39.08a34.65,34.65,0,0,0-13-4,35.4,35.4,0,0,0-3.77-.18,34.83,34.83,0,0,0-34.63,35c0,0.86.07,1.71,0.14,2.56,12.15,12.07,26.65,18.1,38.12,15.87Z"/><path class="cls-1" d="M218.49,197.37c-15.45-15.87-35-21.93-47.23-13.34-12,8.42-13.11,28.23-4,47.75a54.09,54.09,0,0,1,50.13-34.46C217.75,197.32,218.11,197.37,218.49,197.37Z"/></svg>