<svg id="Layer_1" data-name="Layer 1" xmlns="http://www.w3.org/2000/svg" viewBox="0 0 401.54 400.9"><defs><style>.cls-1{fill:#13498b;}</style></defs><title>Work Icons</title><g id="HtE5Ud.tif"><path class="cls-1" d="M158.87,75.9c-3.52,7.2-6.88,13.88-10.07,20.65-9,19.16-17.17,38.68-23.05,59.08-2.72,9.43-4.77,19-5,28.86-0.09,3.57-1.93,6.41,1.18,7.53s3.14,0.19,5-2.6a7.55,7.55,0,0,0,1.42-3.79c0.31-13.23,4-25.72,8.24-38.08,8.15-23.82,18.71-46.57,30.46-68.8a275.57,275.57,0,0,1,15-25.94,12.45,12.45,0,0,1,11.46-5.71c2.46,0.08,12,.81,14,2.29,1.1,0.8,1.3,1.48.54,2.75q-13.3,22.2-24.37,45.59a372.42,372.42,0,0,0-21,53.54,219.7,219.7,0,0,0-6.65,30.23c-0.6,4-1.45,7.76,2.66,8.43s4.32-2.14,4.91-6.16A198.27,198.27,0,0,1,170.07,155a370.5,370.5,0,0,1,21.87-54.63,548.81,548.81,0,0,1,34.39-60.8c0.88-1.35,1.89-2.62,2.73-4a6,6,0,0,1,4.05-2.72c7.16-1.57,21.09,2.15,23.35,9.73a4.16,4.16,0,0,1-.28,2.57c-1.62,3.85-3.14,7.76-5.09,11.44C242.43,73,233.31,89.12,225,105.66a324.53,324.53,0,0,0-27,75c-0.65,2.9-.84,6,1.06,8.69,2.3,3.26,2.74,3.83,6.35,2.19,4.31-2,5.2-3.45,9.72-4.89a66,66,0,0,1,22-3.3c25.68,0.74,47.73,9.57,64.11,30.1,3.7,4.64,6.73,9.83,9.93,14.84,3.53,5.53,4.91,11.81,5.61,18.19a137.2,137.2,0,0,1,.88,16.36,52.15,52.15,0,0,1-4.3,21.42c-3.29,7.21-8.8,11-16.75,11.25-2.31.07-4.63,0.18-6.94,0.38-1.37.12-1.76-.33-1.75-1.71,0-15.14,0-30.28.06-45.42a2.72,2.72,0,0,0-1.61-2.75q-26.14-14.71-52.22-29.54a2.12,2.12,0,0,0-2.41,0q-26.09,14.8-52.22,29.54a2.49,2.49,0,0,0-1.49,2.52q0.06,29.44,0,58.88a2.39,2.39,0,0,0,1.44,2.4q26.2,14.76,52.35,29.61a2.18,2.18,0,0,0,2.53-.05q23.17-13.81,46.38-27.55a7.92,7.92,0,0,1,3.25-1.07,12.24,12.24,0,0,1,12.24,5.54c3.09,4.42,3.43,9.34,1.51,14.37-2.26,5.92-6.32,10.51-11,14.6-9.49,8.25-20.71,12.94-32.77,15.89a156.5,156.5,0,0,1-27,3.92,177.83,177.83,0,0,1-25.41-.07c-21.57-1.66-42.2-6.68-60.88-18-20.37-12.37-34.4-30.05-43-52.21a158.85,158.85,0,0,1-8.61-33.21c-1.75-11.32-3-22.69-2.26-34.14,0.54-8.4,1.28-16.8,2.42-25.13A315.41,315.41,0,0,1,97.36,163c3.12-11.58,7.58-22.67,11.93-33.8,5.27-13.49,10.74-26.91,18.08-39.43A146.74,146.74,0,0,1,136.31,77c2-2.76,12.28-3.89,15.65-3.2A67.8,67.8,0,0,1,158.87,75.9Z"/><path class="cls-1" d="M272.83,277.33c0,6.85,0,13.7,0,20.56a2.1,2.1,0,0,1-1.18,2.1q-18.83,11.11-37.6,22.33a2.05,2.05,0,0,1-2.39,0q-18.62-10.59-37.29-21.09A2.26,2.26,0,0,1,193,299q0.07-21.07,0-42.15a2.15,2.15,0,0,1,1.29-2.18q18.8-10.56,37.55-21.22a2,2,0,0,1,2.27,0q18.69,10.61,37.42,21.14a2.28,2.28,0,0,1,1.31,2.34C272.81,263.73,272.83,270.53,272.83,277.33Z"/></g></svg>