<svg id="Layer_1" data-name="Layer 1" xmlns="http://www.w3.org/2000/svg" viewBox="0 0 401.54 400.9"><defs><style>.cls-1{fill:#13498b;}.cls-2{fill:#fff;}</style></defs><title>Work Icons</title><circle class="cls-1" cx="200.74" cy="195.8" r="195.8"/><g id="HtE5Ud.tif"><path class="cls-2" d="M169,110.47c-2.65,5.42-5.18,10.45-7.58,15.54-6.8,14.43-12.93,29.12-17.35,44.48a85.84,85.84,0,0,0-3.77,21.73c-0.06,2.69-1.45,4.82.89,5.67s2.36,0.14,3.8-2a5.68,5.68,0,0,0,1.07-2.86c0.24-10,3-19.37,6.2-28.67a361.45,361.45,0,0,1,22.93-51.79,207.46,207.46,0,0,1,11.32-19.53,9.37,9.37,0,0,1,8.63-4.3c1.85,0.06,9,.61,10.56,1.72a1.3,1.3,0,0,1,.41,2.07q-10,16.71-18.34,34.33A280.38,280.38,0,0,0,172,167.22,165.4,165.4,0,0,0,167,190c-0.45,3-1.09,5.84,2,6.35s3.25-1.61,3.69-4.64A149.27,149.27,0,0,1,177.44,170a278.93,278.93,0,0,1,16.46-41.13A413.17,413.17,0,0,1,219.8,83.11c0.67-1,1.42-2,2.06-3a4.5,4.5,0,0,1,3-2c5.39-1.18,15.88,1.62,17.58,7.33a3.13,3.13,0,0,1-.21,1.94c-1.22,2.9-2.37,5.84-3.83,8.62-6.51,12.33-13.38,24.47-19.63,36.93a244.32,244.32,0,0,0-20.31,56.43c-0.49,2.19-.63,4.51.8,6.54,1.73,2.46,2.06,2.88,4.78,1.65,3.24-1.47,3.92-2.6,7.32-3.68a49.69,49.69,0,0,1,16.54-2.48c19.33,0.56,35.93,7.21,48.27,22.66a129.19,129.19,0,0,1,7.48,11.17c2.66,4.16,3.69,8.89,4.22,13.7a103.29,103.29,0,0,1,.66,12.32,39.26,39.26,0,0,1-3.24,16.13c-2.48,5.43-6.62,8.29-12.61,8.47-1.74.05-3.49,0.14-5.22,0.29-1,.09-1.32-0.25-1.32-1.29,0-11.4,0-22.8,0-34.19a2,2,0,0,0-1.21-2.07q-19.68-11.07-39.31-22.24a1.59,1.59,0,0,0-1.81,0q-19.64,11.14-39.31,22.24a1.88,1.88,0,0,0-1.12,1.89q0,22.17,0,44.33a1.8,1.8,0,0,0,1.08,1.81q19.72,11.12,39.41,22.29a1.64,1.64,0,0,0,1.91,0q17.44-10.4,34.92-20.74a6,6,0,0,1,2.44-.81,9.21,9.21,0,0,1,9.22,4.17,11.1,11.1,0,0,1,1.14,10.82c-1.7,4.46-4.76,7.92-8.29,11-7.14,6.21-15.59,9.74-24.67,12a117.82,117.82,0,0,1-20.32,2.95,133.88,133.88,0,0,1-19.13-.05c-16.24-1.25-31.77-5-45.83-13.56-15.33-9.31-25.9-22.63-32.34-39.31a119.59,119.59,0,0,1-6.48-25c-1.32-8.52-2.25-17.08-1.7-25.71,0.4-6.32,1-12.65,1.82-18.92a237.46,237.46,0,0,1,6.1-29.57c2.35-8.71,5.71-17.07,9-25.45,4-10.15,8.08-20.26,13.61-29.69a110.48,110.48,0,0,1,6.73-9.66c1.54-2.08,9.24-2.93,11.78-2.41A51,51,0,0,1,169,110.47Z"/><path class="cls-2" d="M254.81,262.12c0,5.16,0,10.32,0,15.48a1.58,1.58,0,0,1-.89,1.58q-14.18,8.36-28.31,16.81a1.55,1.55,0,0,1-1.8,0q-14-8-28.07-15.88a1.7,1.7,0,0,1-1-1.71q0.06-15.87,0-31.73a1.62,1.62,0,0,1,1-1.64q14.15-8,28.27-16a1.49,1.49,0,0,1,1.71,0q14.07,8,28.17,15.92a1.72,1.72,0,0,1,1,1.76C254.79,251.88,254.81,257,254.81,262.12Z"/></g></svg>