<svg id="Layer_1" data-name="Layer 1" xmlns="http://www.w3.org/2000/svg" xmlns:xlink="http://www.w3.org/1999/xlink" viewBox="0 0 398.77 407.53"><defs><style>.cls-1,.cls-4,.cls-6{fill:#fff;}.cls-1,.cls-2{clip-rule:evenodd;}.cls-2,.cls-3,.cls-7{fill:#00b4f0;}.cls-10,.cls-2{stroke:#fff;stroke-miterlimit:10;stroke-width:5px;}.cls-10,.cls-4,.cls-7{fill-rule:evenodd;}.cls-5{clip-path:url(#clip-path);}.cls-8{clip-path:url(#clip-path-2);}.cls-9{clip-path:url(#clip-path-3);}.cls-10{fill:none;}</style><clipPath id="clip-path"><path class="cls-1" d="M227.1,367.3a76.54,76.54,0,0,0,15.3,9.73c32.63,16.05,74.6,31.08,106,29.56-14.33-18.46-34.25-47-42.33-68.26,52-33,86.26-89.35,86.26-153.26C392.34,83.32,305.52.84,198.43,0.84S4.53,83.32,4.53,185.07,91.34,369.3,198.43,369.3A205.55,205.55,0,0,0,227.1,367.3Z"/></clipPath><clipPath id="clip-path-2"><path class="cls-2" d="M287.53,130.83l-86,34.39-86-34.39,86-34.39Zm-172,0,86,34.39V268.41l-86-34.39V130.83Zm172,0-86,34.39V268.41l86-34.39V130.83Z"/></clipPath><clipPath id="clip-path-3"><rect class="cls-3" x="-63.02" y="-67.59" width="529.13" height="529.13"/></clipPath></defs><title>Services Icons</title><path class="cls-4" d="M227.1,367.3a76.54,76.54,0,0,0,15.3,9.73c32.63,16.05,74.6,31.08,106,29.56-14.33-18.46-34.25-47-42.33-68.26,52-33,86.26-89.35,86.26-153.26C392.34,83.32,305.52.84,198.43,0.84S4.53,83.32,4.53,185.07,91.34,369.3,198.43,369.3A205.55,205.55,0,0,0,227.1,367.3Z"/><g class="cls-5"><rect class="cls-6" x="4.53" y="-33.9" width="394.16" height="468.12"/></g><path class="cls-7" d="M287.53,130.83l-86,34.39-86-34.39,86-34.39Zm-172,0,86,34.39V268.41l-86-34.39V130.83Zm172,0-86,34.39V268.41l86-34.39V130.83Z"/><g class="cls-8"><rect class="cls-3" x="-63.02" y="-67.59" width="529.13" height="529.13"/><g class="cls-9"><rect class="cls-3" x="89.11" y="69.98" width="224.88" height="224.88"/></g></g><path class="cls-10" d="M287.53,130.83l-86,34.39-86-34.39,86-34.39Zm-172,0,86,34.39V268.41l-86-34.39V130.83Zm172,0-86,34.39V268.41l86-34.39V130.83Z"/></svg>