<svg id="Layer_22" data-name="Layer 22" xmlns="http://www.w3.org/2000/svg" viewBox="0 0 364.26 359.43"><defs><style>.cls-1{fill:#ffef7e;}.cls-2,.cls-4,.cls-5{fill:none;stroke:#58b8e2;stroke-linecap:round;stroke-miterlimit:10;}.cls-2{stroke-width:23px;}.cls-3{fill:#58b8e2;}.cls-4{stroke-width:12px;}.cls-5{stroke-width:9.8px;}</style></defs><title>Bramble Logos</title><circle class="cls-1" cx="181.19" cy="179.5" r="177.07"/><path class="cls-2" d="M128.69,247.77a61,61,0,1,0,40-69.26A60.86,60.86,0,0,0,149,189.78"/><polygon class="cls-3" points="136.06 176.25 142.17 207.32 155.64 195.19 152.64 159.2 128.69 159.2 136.06 176.25"/><path class="cls-4" d="M142.59,192.53s20.75-43.89,20.75-52.12V71.83c0-8.24-6-15-13.25-15h-12c-7.29,0-13.25,6.74-13.25,15v68.58C124.84,148.65,142.59,192.53,142.59,192.53Z"/><line class="cls-5" x1="143.37" y1="122.33" x2="126.94" y2="138.03"/><line class="cls-5" x1="143.94" y1="122.33" x2="160.37" y2="138.03"/><line class="cls-5" x1="143.65" y1="61.86" x2="143.65" y2="121.28"/><path class="cls-1" d="M211.52,167.37C229.28,172.26,167,151.2,167,151.2l-13.09,31.86C160.44,173.76,176.08,157.6,211.52,167.37Z"/><path class="cls-1" d="M212.68,218.42c18.24-2.63-5.5-31.47-25.49-31.47-30.4,0-44.73,20.16-44.73,20.16C151.36,214.73,174.35,224,212.68,218.42Z"/></svg>