<?xml version="1.0" encoding="UTF-8" standalone="no"?>
<svg width="50px" height="50px" viewBox="0 0 50 50" version="1.1" xmlns="http://www.w3.org/2000/svg" xmlns:xlink="http://www.w3.org/1999/xlink">
    <!-- Generator: Sketch 39.1 (31720) - http://www.bohemiancoding.com/sketch -->
    <title>logo</title>
    <desc>Created with Sketch.</desc>
    <defs></defs>
    <g id="logo" stroke="none" stroke-width="1" fill="none" fill-rule="evenodd">
        <g>
            <circle id="Oval" fill="#ffef7e" cx="25" cy="25" r="25"></circle>
            <path d="M20.5703787,25.9152338 C20.8818548,25.221851 21.1918941,24.517845 21.4830601,23.8377346 C21.5484167,23.6850735 21.6122517,23.5349284 21.6744431,23.3875401 C22.525379,21.3708908 22.9784028,20.1226872 22.9784028,19.5589073 L22.9784028,7.59435455 C22.9784028,6.1615321 21.8168707,5 20.3840483,5 L18.3116168,5 C16.8787944,5 15.7172623,6.1615321 15.7172623,7.59435455 L15.7172623,19.5589073 C15.7172623,20.1226872 16.1702861,21.3708908 17.021222,23.3875401 C17.0834134,23.5349284 17.1472484,23.6850735 17.212605,23.8377346 C17.5283317,24.5752144 17.8662501,25.340791 18.2041286,26.0904533 C18.3223622,26.3527822 18.4321734,26.5944459 18.5307701,26.8099073 C18.5653245,26.8854184 18.5960248,26.9522946 18.6225216,27.0098432 C18.6384956,27.0445371 18.6494663,27.068298 18.6553832,27.0810802 L19.3478325,28.5769036 L19.3496536,28.5729698 C19.3502446,28.5766867 19.3505576,28.578604 19.3505576,28.578604 C22.366827,25.8599588 26.8796477,25.6391555 30.1469104,28.0503602 C33.4141731,30.4615648 34.5336083,34.8389121 32.8250175,38.5226101 C31.1164267,42.2063081 27.0516451,44.1790866 23.1005415,43.2422335 C19.149438,42.3053803 16.4031277,38.7176115 16.5303415,34.6589504 L15.0049997,34.6111405 C14.8550692,39.3945624 18.091792,43.6230041 22.7484497,44.7271526 C27.4051074,45.831301 32.1957429,43.5062405 34.2094391,39.1647394 C36.2231354,34.8232383 34.9038011,29.6642217 31.0530986,26.8224448 C27.9485153,24.5312956 23.889716,24.2565147 20.5703787,25.9152338 L20.5703787,25.9152338 Z M17.340782,19.9598801 C17.3969939,20.1458152 17.4764683,20.3851458 17.5764202,20.6605406 C17.7842218,21.2330902 18.0737988,21.9565608 18.427267,22.7942518 C18.488405,22.9391437 18.5512031,23.08685 18.6155353,23.237118 C18.86675,23.8239098 18.9716757,24.1231522 19.1781107,24.6058053 L19.3478325,24.991791 C19.3478325,24.991791 19.7685855,23.9648285 20.0801298,23.237118 C20.144462,23.08685 20.2072601,22.9391437 20.2683981,22.7942518 C20.6218663,21.9565608 20.9114433,21.2330902 21.1192448,20.6605406 C21.2252305,20.3685213 21.3081917,20.1170516 21.3648081,19.926795 L19.3688007,18.4560527 L17.340782,19.9598801 Z M17.2433532,18.1322441 L17.2433532,7.59435455 C17.2433532,7.00436884 17.7216311,6.52609091 18.3116168,6.52609091 L18.6135039,6.52609091 L18.6135039,17.1162425 L17.2433532,18.1322441 Z M20.1395948,6.52609091 L20.3840483,6.52609091 C20.974034,6.52609091 21.4523119,7.00436884 21.4523119,7.59435455 L21.4523119,18.0956379 L20.1395948,17.1283727 L20.1395948,6.52609091 Z" fill="#00B4F0"></path>
        </g>
    </g>
</svg>
