<?xml version="1.0" encoding="utf-8"?>
<!-- Generator: Adobe Illustrator 19.2.1, SVG Export Plug-In . SVG Version: 6.00 Build 0)  -->
<svg version="1.1" id="Layer_1" xmlns="http://www.w3.org/2000/svg" xmlns:xlink="http://www.w3.org/1999/xlink" x="0px" y="0px"
	 viewBox="0 0 401.5 400.9" style="enable-background:new 0 0 401.5 400.9;" xml:space="preserve">
<style type="text/css">
	.st0{fill:#FFFFFF;}
	.st1{fill:#00B4F0;}
</style>
<title>Work Icons</title>
<circle class="st0" cx="201.8" cy="199.5" r="195.8"/>
<g id="eLLxev.tif">
	<g>
		<path class="st1" d="M139.6,157.4c-4.7,0-9.4,0-16.9,0c0.7,15.5,1.3,30.4,2,46.2c-2.5,0.4-6.4,1.1-12.4,2.1
			c2.1-16.6,4-31.8,6.2-48.6c-14.6,0-27.9,0-41.2,0c-0.2-0.8-0.3-1.6-0.5-2.4c2.2-1.3,4.2-2.8,6.5-3.9c17-7.8,34.7-14.6,51.1-23.6
			c21.5-11.9,43.8-15.9,68.1-14.5c20.4,1.2,40.9,0.2,62.2,2.7c-16.4,7.6-32.8,15.2-49.5,23c1.5,3,3,5.2,3.8,7.7
			c2.6,7.5,1.2,12.1-7.1,16c-18.3,8.6-36.7,13.9-57.2,12C139.3,172.6,139,173.3,139.6,157.4z"/>
		<path class="st1" d="M306.2,242.6c0.6,14.1-3.1,26.8-12.5,37.6c-20.3,23.4-57.7,17.8-71-10.7c-6.3-13.4-6.9-27.6-3.9-41.8
			c5-23.5,24.6-39,46-37.2c22.2,1.9,39.4,19.9,41.4,43.8C306.4,237.1,306.2,239.8,306.2,242.6z M240.3,242.7
			c1.4,5.7,2.4,12.2,4.7,18.2c2.9,7.7,8.9,12.7,17.4,12.6c8.5-0.1,13.9-5.6,17-13.2c4.7-11.4,4.8-23,0.2-34.4
			c-3.1-7.8-8.6-13.8-17.7-13.9c-9.6-0.1-15.1,6.2-18.1,14.6C242.2,231.3,241.6,236.6,240.3,242.7z"/>
		<path class="st1" d="M162.9,227.4c5.6,0,10.4-0.2,15.2,0c17.3,0.7,28,9.5,30.7,25.4c3.1,17.6-4.8,33.2-20.7,38.7
			c-20,6.9-38.1,2.8-55.1-12.1c4.6-5.7,8.8-10.9,12.8-15.9c7,3.3,13,7.9,19.5,8.6c6.1,0.6,13.1-2,18.6-5.2c2-1.2,2.5-10.4,0.7-11.8
			c-5.1-3.8-11.8-7-18-7.3c-7.5-0.4-15.5,5.5-22.1-2.4c-1.8-2.2-4.1-5.1-4.1-7.6c0.4-14.8,1.4-29.7,2.3-45c21,0,41,0,61.5,0
			c0.4,3.1,0.6,5.8,1,8.5c1.3,8.9-2,12.9-11.4,12c-6.5-0.7-13.2-0.2-19.8-0.1C161.8,213.2,161.7,213.4,162.9,227.4z"/>
		<path class="st0" d="M240.3,242.7c1.3-6.1,1.9-11.3,3.6-16.2c2.9-8.4,8.5-14.7,18.1-14.6c9.1,0.1,14.5,6.1,17.7,13.9
			c4.6,11.4,4.5,23-0.2,34.4c-3.1,7.6-8.5,13.1-17,13.2c-8.5,0.1-14.5-4.9-17.4-12.6C242.7,254.8,241.7,248.3,240.3,242.7z"/>
	</g>
</g>
</svg>
