<?xml version="1.0" encoding="utf-8"?>
<!-- Generator: Adobe Illustrator 19.2.1, SVG Export Plug-In . SVG Version: 6.00 Build 0)  -->
<svg version="1.1" id="Layer_1" xmlns="http://www.w3.org/2000/svg" xmlns:xlink="http://www.w3.org/1999/xlink" x="0px" y="0px"
	 viewBox="0 0 401.5 400.9" style="enable-background:new 0 0 401.5 400.9;" xml:space="preserve">
<style type="text/css">
	.st0{fill:#FFFFFF;}
	.st1{fill:#FDFDFD;}
	.st2{fill:#00B4F0;}
</style>
<title>Work Icons</title>
<circle class="st0" cx="201.8" cy="199.5" r="195.8"/>
<g>
	<path class="st1" d="M-281.8,122.9c17.1,15.8,39.8,13.7,47.7-5.3c4.4-10.5,9.4-11.4,18.2-8.5c2.4,0.8,5,1.4,7.5,1.4
		c6.1,0.1,6.4,2.9,4.7,7.9c-12,34.9-61.1,54.6-90.9,33.3c-14.8-10.6-23.7-8.6-35.2,1.1c-1,0.8-2.1,1.4-3.2,2.1
		c-9.7,6-9.7,6-1.6,14.4c33.1,34.5,83.3,39.9,125.1,13.3c29.2-18.6,50.6-44.6,69.5-73c4.5-6.7,3.7-13-0.5-19.5
		c-15.2-23.1-32.6-44.2-54.3-61.6c-19.5-15.7-41.1-26.8-66.8-27.9c-13.7-0.6-14.1-0.1-11.5,13.3c1.2,6.3,2.2,12.6,3.3,18.9
		c0.6,3.3,1.5,5.6,5.9,5.8C-245,39-231.4,49-220.4,63.2c11.4,14.8,11.3,14.9-4.3,24.5C-243.7,99.3-262.6,111.1-281.8,122.9z
		 M-362.4,100c-0.1,14.9,3.4,29,9.4,42.6c2.3,5.2,4.3,8,10.2,3.7c6.4-4.7,13.3-8.7,20.3-12.6c4.6-2.6,5.1-5.2,2.9-10
		c-6.6-14.2-6.2-28.8-1.7-43.8c2-6.8,11.3-12,7.5-19c-3.4-6.3-11-10.4-16.7-15.4c-1.4-1.3-3-2.4-4.2-3.9c-3.8-4.6-6.4-3.4-9.4,1
		C-356.1,60-362.2,79.1-362.4,100z M-283.6,29.3c-0.2-10.1-8.4-18.2-18.3-18C-312,11.5-320,19.6-320,29.6c0,10.5,8.4,18.6,19,18.3
		C-290.7,47.6-283.4,39.8-283.6,29.3z M-296.7,93.6c0.1,2.1,0.2,6.8,3.2,8.7c3.2,2.1,6.1-2.1,8.9-3.8c9.6-5.6,18.8-12,28.5-17.3
		c6.3-3.4,4.8-6.2,0.8-9.7c-7.4-6.5-15.7-8.1-24.8-4.3C-290.1,71.4-296.9,81.6-296.7,93.6z"/>
	<path class="st2" d="M-281.8,122.9c19.1-11.8,38.1-23.5,57-35.2c15.6-9.6,15.7-9.6,4.3-24.5C-231.4,49-245,39-263.7,38.6
		c-4.4-0.1-5.3-2.4-5.9-5.8c-1.1-6.3-2.1-12.6-3.3-18.9c-2.7-13.4-2.3-13.8,11.5-13.3c25.7,1,47.3,12.2,66.8,27.9
		c21.6,17.4,39.1,38.5,54.3,61.6c4.3,6.5,5,12.8,0.5,19.5c-18.9,28.4-40.3,54.4-69.5,73c-41.8,26.6-92,21.2-125.1-13.3
		c-8.1-8.5-8.1-8.5,1.6-14.4c1.1-0.7,2.3-1.2,3.2-2.1c11.5-9.7,20.4-11.7,35.2-1.1c29.8,21.3,78.9,1.6,90.9-33.3
		c1.7-5,1.4-7.8-4.7-7.9c-2.5-0.1-5.1-0.7-7.5-1.4c-8.8-2.9-13.9-1.9-18.2,8.5C-242,136.6-264.7,138.7-281.8,122.9z"/>
	<path class="st2" d="M-362.4,100c0.2-21,6.3-40,18.2-57.3c3.1-4.5,5.7-5.6,9.4-1c1.2,1.5,2.8,2.6,4.2,3.9
		c5.7,5.1,13.3,9.1,16.7,15.4c3.8,7-5.4,12.2-7.5,19c-4.5,14.9-4.9,29.5,1.7,43.8c2.2,4.8,1.7,7.4-2.9,10
		c-6.9,3.9-13.9,7.9-20.3,12.6c-5.9,4.4-7.9,1.5-10.2-3.7C-359,129-362.5,115-362.4,100z"/>
	<path class="st2" d="M-283.6,29.3c0.2,10.6-7.1,18.3-17.4,18.6c-10.6,0.3-19.1-7.8-19-18.3c0-10,8-18.1,18.2-18.3
		C-292,11.1-283.7,19.2-283.6,29.3z"/>
	<path class="st2" d="M-296.7,93.6c-0.2-12,6.6-22.1,16.7-26.4c9.1-3.8,17.5-2.2,24.8,4.3c3.9,3.5,5.4,6.3-0.8,9.7
		c-9.8,5.3-18.9,11.7-28.5,17.3c-2.8,1.7-5.7,5.9-8.9,3.8C-296.6,100.3-296.7,95.6-296.7,93.6z"/>
</g>
<g>
	<g>
		<path class="st2" d="M110.2,301.7v-208h55.6l36,136.6h0.6l36-136.6H294v208h-34V138h-0.6l-42.4,163.6h-30L144.8,138h-0.6v163.6
			H110.2z"/>
	</g>
</g>
</svg>
