<svg id="Layer_1" data-name="Layer 1" xmlns="http://www.w3.org/2000/svg" xmlns:xlink="http://www.w3.org/1999/xlink" viewBox="0 0 398.77 407.53"><defs><style>.cls-1,.cls-4,.cls-5,.cls-6{fill:#00b4f0;}.cls-1,.cls-11,.cls-12,.cls-2,.cls-3,.cls-8{stroke:#fff;}.cls-1,.cls-8{stroke-miterlimit:10;stroke-width:5px;}.cls-1,.cls-2,.cls-4{clip-rule:evenodd;}.cls-12,.cls-2,.cls-3,.cls-8{fill:none;}.cls-11,.cls-12,.cls-2,.cls-3{stroke-linejoin:round;}.cls-12,.cls-6,.cls-8{fill-rule:evenodd;}.cls-7{clip-path:url(#clip-path);}.cls-9{clip-path:url(#clip-path-2);}.cls-10{clip-path:url(#clip-path-3);}.cls-11{fill:#fff;}.cls-13{clip-path:url(#clip-path-4);}.cls-14{clip-path:url(#clip-path-5);}</style><clipPath id="clip-path"><path class="cls-1" d="M-148.67,130.83l-86,34.39-86-34.39,86-34.39Zm-172,0,86,34.39V268.41l-86-34.39V130.83Zm172,0-86,34.39V268.41l86-34.39V130.83Z"/></clipPath><clipPath id="clip-path-2"><path class="cls-2" d="M384.82,75.1L198.19,149.75,11.57,75.1,198.19,0.45Zm0,0L198.19,149.75v224l186.63-74.65V75.1Zm-373.25,0,186.63,74.65v224L11.57,299.05V75.1Z"/></clipPath><clipPath id="clip-path-3"><rect class="cls-3" x="-9.17" y="-20.29" width="414.73" height="414.73"/></clipPath><clipPath id="clip-path-4"><path class="cls-4" d="M199.28,263.12S281,223.56,281,174.77s-42.48-74.71-81.69-35.34c-37.58-39.38-81.69-13.45-81.69,35.34S199.28,263.12,199.28,263.12Z"/></clipPath><clipPath id="clip-path-5"><rect class="cls-5" x="-13.72" y="-44.66" width="423.59" height="458.09"/></clipPath></defs><title>Services Icons</title><path class="cls-6" d="M-148.67,130.83l-86,34.39-86-34.39,86-34.39Zm-172,0,86,34.39V268.41l-86-34.39V130.83Zm172,0-86,34.39V268.41l86-34.39V130.83Z"/><g class="cls-7"><rect class="cls-5" x="-499.22" y="-67.59" width="529.13" height="529.13"/></g><path class="cls-8" d="M-148.67,130.83l-86,34.39-86-34.39,86-34.39Zm-172,0,86,34.39V268.41l-86-34.39V130.83Zm172,0-86,34.39V268.41l86-34.39V130.83Z"/><g class="cls-9"><g class="cls-10"><rect class="cls-11" x="-9.17" y="-20.29" width="414.73" height="414.73"/></g><rect class="cls-3" x="-9.17" y="-20.29" width="414.73" height="414.73"/></g><path class="cls-12" d="M384.82,75.1L198.19,149.75,11.57,75.1,198.19,0.45Zm0,0L198.19,149.75v224l186.63-74.65V75.1Zm-373.25,0,186.63,74.65v224L11.57,299.05V75.1Z"/><path class="cls-6" d="M199.28,263.12S281,223.56,281,174.77s-42.48-74.71-81.69-35.34c-37.58-39.38-81.69-13.45-81.69,35.34S199.28,263.12,199.28,263.12Z"/><g class="cls-13"><rect class="cls-5" x="-13.72" y="-44.66" width="423.59" height="458.09"/><g class="cls-14"><rect class="cls-5" x="96.41" y="97.35" width="205.74" height="188.67"/></g></g></svg>
