<svg id="Layer_1" data-name="Layer 1" xmlns="http://www.w3.org/2000/svg" xmlns:xlink="http://www.w3.org/1999/xlink" viewBox="0 0 398.77 407.53"><defs><style>.cls-1,.cls-5,.cls-7{fill:#fff;}.cls-1,.cls-2,.cls-3{clip-rule:evenodd;}.cls-2,.cls-3,.cls-4,.cls-8{fill:#00b4f0;}.cls-10,.cls-2{stroke:#fff;stroke-miterlimit:10;stroke-width:5px;}.cls-10,.cls-5,.cls-8{fill-rule:evenodd;}.cls-6{clip-path:url(#clip-path);}.cls-9{clip-path:url(#clip-path-2);}.cls-10{fill:none;}.cls-11{clip-path:url(#clip-path-3);}.cls-12{clip-path:url(#clip-path-4);}</style><clipPath id="clip-path"><path class="cls-1" d="M199.39,373.71s197.28-98.49,197.28-220-102.59-186-197.28-88C108.64-32.32,2.1,32.23,2.1,153.73S199.39,373.71,199.39,373.71Z"/></clipPath><clipPath id="clip-path-2"><path class="cls-2" d="M718.56,130.83l-86,34.39-86-34.39,86-34.39Zm-172,0,86,34.39V268.41l-86-34.39V130.83Zm172,0-86,34.39V268.41l86-34.39V130.83Z"/></clipPath><clipPath id="clip-path-3"><path class="cls-3" d="M211.06,256.33a31.46,31.46,0,0,0,6.29,4,82,82,0,0,0,40.07,8.74,96,96,0,0,1-13.91-24.61C264.89,230.89,279,207.79,279,181.57c0-41.74-35.68-75.58-79.68-75.58s-79.68,33.84-79.68,75.58,35.68,75.58,79.68,75.58A84.62,84.62,0,0,0,211.06,256.33Z"/></clipPath><clipPath id="clip-path-4"><rect class="cls-4" x="-23.29" y="-62.11" width="439.63" height="521.24"/></clipPath></defs><title>Services Icons</title><path class="cls-5" d="M199.39,373.71s197.28-98.49,197.28-220-102.59-186-197.28-88C108.64-32.32,2.1,32.23,2.1,153.73S199.39,373.71,199.39,373.71Z"/><g class="cls-6"><rect class="cls-7" x="2.1" y="-23.52" width="394.57" height="439.97"/></g><path class="cls-8" d="M718.56,130.83l-86,34.39-86-34.39,86-34.39Zm-172,0,86,34.39V268.41l-86-34.39V130.83Zm172,0-86,34.39V268.41l86-34.39V130.83Z"/><g class="cls-9"><rect class="cls-4" x="368.01" y="-67.59" width="529.13" height="529.13"/></g><path class="cls-10" d="M718.56,130.83l-86,34.39-86-34.39,86-34.39Zm-172,0,86,34.39V268.41l-86-34.39V130.83Zm172,0-86,34.39V268.41l86-34.39V130.83Z"/><path class="cls-8" d="M211.06,256.33a31.46,31.46,0,0,0,6.29,4,82,82,0,0,0,40.07,8.74,96,96,0,0,1-13.91-24.61C264.89,230.89,279,207.79,279,181.57c0-41.74-35.68-75.58-79.68-75.58s-79.68,33.84-79.68,75.58,35.68,75.58,79.68,75.58A84.62,84.62,0,0,0,211.06,256.33Z"/><g class="cls-11"><rect class="cls-4" x="-23.29" y="-62.11" width="439.63" height="521.24"/><g class="cls-12"><rect class="cls-4" x="97.61" y="79.93" width="203.33" height="215.28"/></g></g><g id="e3NFI4.tif"><path class="cls-7" d="M146.41,184.84c2.36,0.66,4.68,1.48,7.07,1.93a14.48,14.48,0,0,0,8.89-.86c4.2-1.91,5.52-5,3.89-9.32-0.24-.65-0.53-1.28-0.84-2a5.7,5.7,0,0,1,4.51,1.06,35.12,35.12,0,0,1,3.47,3c4,3.92,8.55,6.4,14.23,6.41a13.3,13.3,0,0,0,3.75-.48,3.62,3.62,0,0,0,2.73-3.74c0-.31,0-0.61,0-0.92-0.12-2.77-.05-2.89,2.78-3.15a12.4,12.4,0,0,1,7.09,1.57c2,1.08,3.92,2.32,5.86,3.51,2.65,1.63,5.21,3.42,8.44,3.76,3,0.32,5.41-.93,5.88-3.37a9.88,9.88,0,0,0-.21-3.1,14.72,14.72,0,0,0-.57-2c7,0.82,13.67,2.25,20,5.62l2.74-3.22a29,29,0,0,0-2.9-1.69,58.23,58.23,0,0,0-20.31-5c-3-.17-4.59,1.73-3.92,4.67,0.26,1.14.62,2.26,1.05,3.8a10.84,10.84,0,0,1-2.91-.47,61.6,61.6,0,0,1-5.71-3.22c-3.5-2.2-7-4.55-11.17-5a21.74,21.74,0,0,0-6.63.37c-2.8.57-4.18,2.83-4,5.68,0,0.56.1,1.12,0.16,1.81-3.3.17-6.45,0-9.24-1.72a29.57,29.57,0,0,1-4.65-3.61c-2.66-2.47-5.42-4.62-9.26-4.7a15,15,0,0,0-3.14.19A3.36,3.36,0,0,0,161,175.1c0.32,1.18.88,2.28,1.3,3.43,0.68,1.87.38,2.54-1.41,3.45a10.2,10.2,0,0,1-6.94.6,49.07,49.07,0,0,1-6-1.87,6.27,6.27,0,0,1-1.5-1.14v5.26Z"/></g></svg>