<?xml version="1.0" encoding="utf-8"?>
<!-- Generator: Adobe Illustrator 19.2.1, SVG Export Plug-In . SVG Version: 6.00 Build 0)  -->
<svg version="1.1" id="Layer_1" xmlns="http://www.w3.org/2000/svg" xmlns:xlink="http://www.w3.org/1999/xlink" x="0px" y="0px"
	 viewBox="0 0 401.5 400.9" style="enable-background:new 0 0 401.5 400.9;" xml:space="preserve">
<style type="text/css">
	.st0{fill:#FFFFFF;}
	.st1{fill:#00B4F0;}
</style>
<title>Work Icons</title>
<circle class="st0" cx="201.8" cy="199.5" r="195.8"/>
<path class="st1" d="M221.1,190.5c-6.6-1.9-13-1.7-17.9,0.1c5.4,3.6,10.1,8.2,13.8,13.6c3.2,4.5,5.7,9.5,7.4,14.9
	c7.2-0.5,12.9-3.7,14.3-8.8C240.9,202.8,233,193.9,221.1,190.5z"/>
<path class="st1" d="M173.7,234.8c-3.8-5.3-6.5-11.3-8.1-17.6c-3.4,3.9-5.7,9.9-6.2,16.8c-0.8,12.4,4.9,22.8,12.7,23.3
	c5.3,0.4,10.2-3.9,13.1-10.5C180.7,243.4,176.9,239.3,173.7,234.8z"/>
<path class="st1" d="M222.2,257.6l-4.8-16.4c3.6-6,3.3-15.2-0.7-24.5c-2.5-1.4-5.3-2.2-8.1-2.5c-0.8-0.1-1.6-0.1-2.4-0.1
	c-12.1,0.1-21.8,9.9-21.7,22c0,0,0,0,0,0c0,0.5,0,1.1,0.1,1.6c7.6,7.6,16.7,11.4,23.9,10L222.2,257.6z"/>
<path class="st1" d="M206.8,202c-9.7-10-22-13.8-29.6-8.4c-7.5,5.3-8.2,17.7-2.5,30c5.1-13,17.5-21.5,31.4-21.6
	C206.3,201.9,206.6,202,206.8,202z"/>
<g>
	<path class="st0" d="M108.5,331.9c0-25.9,0-51.7,0-77.6c0.9,2.4,2.3,4.7,2.8,7.2c7,40.2,40.5,68.1,81,67.2
		c42.1-0.9,76.1-30.2,79.6-71.4c1.8-20.9-0.6-42.3-1.2-63.4c-1.1-34.1,2-67.4,15.5-99.2c4.3-10.2,2.1-13.5-8.6-13.2
		c-8.7,0.2-17.4,1.4-26,2.3c-66.8,6.9-118.7,51.2-135.7,115.9c-2.6,9.8-4.8,19.7-7.2,29.5c0-67.7,0-135.4,0-203.1"/>
	<path class="st1" d="M115.7,199.7c17-64.6,68.9-109,135.7-115.9c8.7-0.9,17.3-2,26-2.3c10.8-0.3,13,2.9,8.6,13.2
		c-13.5,31.8-16.6,65.2-15.5,99.2c0.7,21.1,3,42.4,1.2,63.4c-3.5,41.2-37.5,70.5-79.6,71.4c-40.5,0.8-73.9-27-81-67.2
		C108.5,229.1,113.1,209.4,115.7,199.7z M270.5,92.7c-12.7,2.2-23.1,3.3-33.1,5.8c-49.1,12.1-84.7,40.2-100.7,89.4
		c-8.3,25.3,6.8,51.5,30.6,55.5c18.8,3.2,38.5-5.6,48.7-24.5c7.1-13.2,12.3-27.8,16.1-42.3c7.1-27.1,17.6-52.4,33.9-75.3
		C267.1,99.4,267.9,97.4,270.5,92.7z"/>
	<path class="st0" d="M270.5,92.7c-2.5,4.7-3.4,6.7-4.6,8.5c-16.2,22.9-26.8,48.2-33.9,75.3c-3.8,14.5-9,29.1-16.1,42.3
		c-10.2,19-29.9,27.7-48.7,24.5c-23.8-4.1-38.9-30.2-30.6-55.5c16.1-49.2,51.6-77.2,100.7-89.4C247.4,96,257.8,94.9,270.5,92.7z"/>
</g>
</svg>
